<svg version="1.2" baseProfile="tiny-ps" xmlns="http://www.w3.org/2000/svg" viewBox="0 0 163 40" width="163" height="40">
	<title>logo-svg</title>
	<style>
		tspan { white-space:pre }
		.shp0 { fill: #ffffff } 
		.shp1 { fill: #04d361 } 
		.shp2 { fill: #8257e5 } 
	</style>
	<path id="Layer" fill-rule="evenodd" class="shp0" d="M58.21 29L58.21 12.2L65.29 12.2C66.28 12.2 67.17 12.44 67.95 12.92C68.75 13.38 69.38 14.02 69.85 14.84C70.33 15.64 70.57 16.54 70.57 17.55C70.57 18.59 70.33 19.53 69.85 20.36C69.38 21.18 68.75 21.83 67.95 22.33C67.17 22.81 66.28 23.05 65.29 23.05L61.66 23.05L61.66 29L58.21 29ZM61.64 19.9L64.93 19.9C65.52 19.9 66.02 19.69 66.42 19.26C66.83 18.81 67.04 18.26 67.04 17.6C67.04 16.94 66.83 16.41 66.42 15.99C66.02 15.56 65.52 15.34 64.93 15.34L61.64 15.34L61.64 19.9Z" />
	<path id="Layer" fill-rule="evenodd" class="shp0" d="M78.96 29.24C77.66 29.24 76.51 28.96 75.5 28.4C74.5 27.82 73.7 27.04 73.13 26.05C72.55 25.06 72.26 23.92 72.26 22.64C72.26 21.38 72.55 20.25 73.13 19.26C73.7 18.26 74.5 17.49 75.5 16.93C76.51 16.35 77.66 16.06 78.96 16.06C80.22 16.06 81.36 16.35 82.37 16.93C83.38 17.49 84.17 18.26 84.74 19.26C85.32 20.25 85.61 21.38 85.61 22.64C85.61 23.92 85.32 25.06 84.74 26.05C84.17 27.04 83.38 27.82 82.37 28.4C81.36 28.96 80.22 29.24 78.96 29.24ZM78.96 26.38C79.6 26.38 80.17 26.22 80.69 25.9C81.2 25.57 81.59 25.12 81.86 24.56C82.15 24 82.3 23.36 82.3 22.64C82.3 21.92 82.15 21.28 81.86 20.72C81.59 20.16 81.2 19.72 80.69 19.4C80.17 19.08 79.6 18.92 78.96 18.92C78.3 18.92 77.72 19.08 77.21 19.4C76.69 19.72 76.3 20.16 76.01 20.72C75.72 21.28 75.58 21.92 75.58 22.64C75.58 23.36 75.72 24 76.01 24.56C76.3 25.12 76.69 25.57 77.21 25.9C77.72 26.22 78.3 26.38 78.96 26.38Z" />
	<path id="Layer" fill-rule="evenodd" class="shp0" d="M93.21 29.24C92.09 29.24 91.09 28.96 90.21 28.4C89.33 27.82 88.64 27.04 88.12 26.05C87.63 25.06 87.38 23.93 87.38 22.66C87.38 21.38 87.63 20.25 88.12 19.26C88.64 18.26 89.33 17.49 90.21 16.93C91.09 16.35 92.09 16.06 93.21 16.06C93.98 16.06 94.71 16.22 95.4 16.52C96.1 16.82 96.67 17.22 97.1 17.7L97.1 11.24L100.39 11.24L100.39 29L97.27 29L97.22 27.49C96.8 27.98 96.24 28.4 95.52 28.74C94.8 29.07 94.03 29.24 93.21 29.24ZM93.93 26.5C94.91 26.5 95.7 26.15 96.31 25.45C96.92 24.73 97.22 23.8 97.22 22.66C97.22 21.51 96.92 20.58 96.31 19.88C95.7 19.16 94.91 18.8 93.93 18.8C92.96 18.8 92.16 19.16 91.56 19.88C90.95 20.58 90.64 21.51 90.64 22.66C90.64 23.8 90.95 24.73 91.56 25.45C92.16 26.15 92.96 26.5 93.93 26.5Z" />
	<path id="Layer" class="shp0" d="M109.21 29.24C108.01 29.24 106.93 28.95 105.97 28.38C105.02 27.8 104.27 27.02 103.71 26.02C103.17 25.03 102.9 23.9 102.9 22.64C102.9 21.39 103.17 20.27 103.71 19.28C104.27 18.29 105.02 17.5 105.97 16.93C106.93 16.35 108.01 16.06 109.21 16.06C110.34 16.06 111.38 16.27 112.3 16.69C113.25 17.1 113.98 17.69 114.51 18.44L112.71 20.6C112.38 20.14 111.91 19.74 111.32 19.42C110.73 19.09 110.13 18.92 109.52 18.92C108.85 18.92 108.25 19.09 107.72 19.42C107.21 19.74 106.8 20.18 106.5 20.74C106.21 21.3 106.06 21.94 106.06 22.64C106.06 23.34 106.22 23.98 106.52 24.54C106.82 25.1 107.24 25.54 107.77 25.88C108.3 26.2 108.89 26.36 109.54 26.36C110.17 26.36 110.74 26.22 111.27 25.95C111.8 25.66 112.28 25.26 112.71 24.75L114.51 26.91C113.97 27.62 113.22 28.18 112.26 28.62C111.3 29.03 110.28 29.24 109.21 29.24Z" />
	<path id="Layer" fill-rule="evenodd" class="shp0" d="M121.47 29.24C120.42 29.24 119.46 28.95 118.62 28.38C117.77 27.8 117.09 27.02 116.58 26.02C116.08 25.03 115.83 23.9 115.83 22.64C115.83 21.34 116.08 20.21 116.58 19.23C117.09 18.24 117.78 17.46 118.64 16.9C119.52 16.34 120.51 16.06 121.62 16.06C122.51 16.06 123.3 16.25 123.97 16.62C124.64 16.97 125.18 17.43 125.58 18.01L125.58 16.33L128.84 16.33L128.84 29L125.55 29L125.55 27.3C125.1 27.86 124.52 28.32 123.8 28.69C123.1 29.06 122.32 29.24 121.47 29.24ZM122.36 26.38C123.34 26.38 124.13 26.04 124.74 25.35C125.34 24.66 125.65 23.76 125.65 22.64C125.65 21.52 125.34 20.62 124.74 19.93C124.13 19.24 123.34 18.9 122.36 18.9C121.4 18.9 120.62 19.24 120.01 19.93C119.42 20.62 119.12 21.52 119.12 22.64C119.12 23.76 119.42 24.66 120.01 25.35C120.62 26.04 121.4 26.38 122.36 26.38Z" />
	<path id="Layer" class="shp0" d="M136.53 29.24C135.36 29.24 134.32 29.05 133.41 28.66C132.5 28.28 131.76 27.74 131.2 27.03L133.27 25.28C133.75 25.81 134.29 26.19 134.9 26.43C135.51 26.66 136.12 26.77 136.75 26.77C137.24 26.77 137.64 26.66 137.95 26.43C138.25 26.21 138.4 25.9 138.4 25.5C138.4 25.14 138.26 24.86 137.97 24.66C137.68 24.46 137 24.22 135.91 23.94C134.29 23.52 133.15 22.95 132.47 22.23C131.88 21.59 131.59 20.8 131.59 19.86C131.59 19.1 131.81 18.45 132.26 17.89C132.71 17.31 133.3 16.86 134.03 16.54C134.77 16.22 135.57 16.06 136.44 16.06C137.43 16.06 138.36 16.24 139.24 16.59C140.12 16.94 140.86 17.42 141.45 18.03L139.68 19.98C139.23 19.56 138.71 19.22 138.12 18.94C137.54 18.66 137 18.51 136.51 18.51C135.35 18.51 134.78 18.91 134.78 19.71C134.79 20.1 134.97 20.4 135.31 20.62C135.63 20.85 136.35 21.11 137.49 21.42C139.01 21.82 140.08 22.34 140.71 23C141.25 23.56 141.52 24.3 141.52 25.23C141.52 26 141.3 26.69 140.85 27.3C140.42 27.9 139.83 28.38 139.07 28.74C138.32 29.07 137.47 29.24 136.53 29.24Z" />
	<path id="Layer" class="shp0" d="M145.25 29L145.25 19.28L142.85 19.28L142.85 16.33L145.25 16.33L145.25 13.09L148.51 13.09L148.51 16.33L151.18 16.33L151.18 19.28L148.51 19.28L148.51 29L145.25 29Z" />
	<path id="Layer" class="shp0" d="M153.38 29L153.38 16.33L156.54 16.33L156.59 18.42C157.01 17.73 157.55 17.17 158.22 16.74C158.91 16.29 159.63 16.06 160.38 16.06C160.67 16.06 160.94 16.09 161.18 16.14C161.43 16.17 161.65 16.22 161.82 16.28L160.94 19.88C160.76 19.78 160.54 19.7 160.26 19.64C159.99 19.58 159.72 19.54 159.45 19.54C158.66 19.54 158 19.82 157.46 20.36C156.93 20.89 156.66 21.56 156.66 22.38L156.66 29L153.38 29Z" />
	<path id="Layer" class="shp0" d="M38.13 19.89C38.15 23.05 37.34 26.17 35.78 28.93C35.58 29.28 35.36 29.63 35.13 29.98C35.02 30.15 34.88 30.3 34.71 30.42C34.54 30.53 34.34 30.62 34.14 30.66C33.94 30.7 33.73 30.7 33.53 30.67C33.32 30.63 33.13 30.55 32.96 30.43C32.79 30.32 32.64 30.17 32.52 30C32.41 29.83 32.33 29.64 32.29 29.43C32.25 29.23 32.25 29.02 32.29 28.82C32.33 28.62 32.41 28.42 32.53 28.25C34.02 25.99 34.87 23.36 34.99 20.66C35.11 17.95 34.49 15.26 33.2 12.87C31.91 10.49 30 8.5 27.67 7.11C25.34 5.72 22.68 4.99 19.97 5C14.76 5.01 10.14 7.75 7.46 11.83C5.85 14.27 5 17.13 5 20.05C5 22.96 5.86 25.82 7.47 28.25C7.7 28.6 7.78 29.02 7.7 29.43C7.62 29.83 7.37 30.19 7.03 30.42C6.68 30.65 6.26 30.73 5.85 30.64C5.45 30.56 5.09 30.32 4.86 29.97C3.08 27.27 2.05 24.13 1.9 20.89C1.74 17.65 2.45 14.42 3.96 11.55C5.47 8.68 7.73 6.27 10.49 4.57C13.25 2.87 16.42 1.94 19.66 1.88C19.78 1.88 19.89 1.88 20 1.88C24.79 1.87 29.39 3.76 32.79 7.13C36.19 10.51 38.11 15.1 38.13 19.89Z" />
	<path id="Layer" class="shp1" d="M9.07 22.79L11.9 36.88C12.07 37.73 12.89 38.28 13.74 38.11C14.58 37.94 15.13 37.11 14.96 36.27L12.13 22.18C11.96 21.33 11.13 20.79 10.29 20.96C9.44 21.13 8.9 21.95 9.07 22.79Z" />
	<path id="Layer" class="shp0" d="M11.84 36.56L11.13 36.71C10.06 36.92 8.95 36.72 8.03 36.15C7.1 35.57 6.43 34.66 6.16 33.61C6.14 33.53 6.12 33.45 6.1 33.37L5.07 28.26C4.85 27.15 5.07 25.99 5.7 25.05C6.33 24.11 7.3 23.45 8.41 23.23L9.13 23.08L10.39 29.34L11.84 36.56Z" />
	<path id="Layer" class="shp0" d="M11.84 36.56L11.13 36.71C10.06 36.92 8.95 36.72 8.03 36.15C7.1 35.57 6.43 34.66 6.16 33.61C7.67 32.3 9.09 30.87 10.39 29.34L11.84 36.56Z" />
	<path id="Layer" class="shp0" d="M36.15 27.09L35.78 28.93C35.58 29.28 35.36 29.63 35.13 29.98C35.02 30.15 34.88 30.3 34.71 30.42C34.54 30.53 34.34 30.62 34.14 30.66C33.94 30.7 33.73 30.7 33.53 30.67C33.32 30.63 33.13 30.55 32.96 30.43C32.79 30.32 32.64 30.17 32.52 30C32.41 29.83 32.33 29.64 32.29 29.43C32.25 29.23 32.25 29.02 32.29 28.82C32.33 28.62 32.41 28.42 32.53 28.25C33.59 26.65 34.33 24.86 34.7 22.97C35.29 23.47 35.74 24.11 35.99 24.83C36.24 25.56 36.3 26.34 36.15 27.09Z" />
	<path id="Layer" class="shp2" d="M34.3 8.83L32.05 11.07C30.66 9.18 28.84 7.65 26.74 6.59C24.64 5.54 22.32 4.99 19.97 5C14.76 5.01 10.14 7.75 7.46 11.83L5.18 9.56C6.82 7.23 8.99 5.32 11.5 3.99C14.02 2.65 16.82 1.93 19.66 1.88C19.78 1.88 19.89 1.88 20 1.88C22.76 1.87 25.48 2.49 27.96 3.7C30.43 4.9 32.6 6.66 34.3 8.83Z" />
	<path id="Layer" class="shp1" d="M27.85 22.16L25.01 36.25C24.84 37.1 25.39 37.92 26.24 38.09C27.08 38.26 27.91 37.71 28.08 36.87L30.91 22.78C31.08 21.93 30.53 21.11 29.69 20.94C28.84 20.77 28.02 21.32 27.85 22.16Z" />
	<path id="Layer" class="shp0" d="M34.93 28.26L33.9 33.37C33.68 34.48 33.02 35.45 32.08 36.08C31.14 36.71 29.98 36.93 28.87 36.71L28.16 36.56L28.9 32.87L30.87 23.08L31.59 23.23C32.7 23.45 33.67 24.11 34.3 25.05C34.39 25.18 34.46 25.31 34.54 25.45C34.98 26.32 35.12 27.3 34.93 28.26Z" />
	<path id="Layer" class="shp0" d="M34.93 28.26L33.9 33.37C33.68 34.48 33.02 35.45 32.08 36.08C31.14 36.71 29.98 36.93 28.87 36.71L28.16 36.56L28.9 32.87C31.04 30.61 32.93 28.12 34.54 25.45C34.98 26.32 35.12 27.3 34.93 28.26Z" />
</svg>